<svg xmlns="http://www.w3.org/2000/svg" width="201" height="145" viewBox="0 0 201 145">
<g>
<path d="M 57.00 122.33 C51.81,121.51 42.31,117.61 37.12,114.19 C23.18,104.98 15.08,86.14 17.72,69.08 C21.34,45.65 40.53,29.00 63.91,29.00 C73.15,29.00 80.53,31.00 88.07,35.56 C93.46,38.81 104.00,48.91 104.00,50.81 C104.00,51.33 101.72,51.96 98.94,52.23 C94.96,52.61 93.17,53.41 90.50,56.00 L 87.12 59.28 L 83.93 56.59 C77.41,51.10 73.10,49.54 64.50,49.52 C57.56,49.50 55.88,49.86 51.82,52.25 C33.07,63.27 33.39,89.33 52.41,99.00 C64.07,104.92 75.21,102.48 85.22,91.80 C90.37,86.31 91.12,85.84 92.72,87.09 C95.74,89.45 104.00,98.43 104.00,99.36 C104.00,101.04 96.98,109.78 93.50,112.43 C83.50,120.06 68.42,124.15 57.00,122.33 ZM 104.74 85.24 C91.33,71.81 90.00,70.16 90.03,66.99 C90.07,63.07 91.25,61.17 95.25,58.56 C99.80,55.60 103.49,57.09 112.50,65.50 L 120.50 72.98 L 144.50 48.46 L 168.50 23.93 L 173.03 23.97 C175.52,23.98 178.49,24.66 179.64,25.46 C182.40,27.39 184.38,32.36 183.61,35.42 C182.95,38.06 122.52,100.00 120.61,100.00 C119.98,100.00 112.84,93.36 104.74,85.24 Z" fill="rgb(9,202,159)"/>
</g>
</svg>